<?xml version="1.0" encoding="UTF-8" standalone="no"?>
<svg
   xmlns:dc="http://purl.org/dc/elements/1.1/"
   xmlns:cc="http://creativecommons.org/ns#"
   xmlns:rdf="http://www.w3.org/1999/02/22-rdf-syntax-ns#"
   xmlns:svg="http://www.w3.org/2000/svg"
   xmlns="http://www.w3.org/2000/svg"
   xmlns:xlink="http://www.w3.org/1999/xlink"
   xmlns:sodipodi="http://sodipodi.sourceforge.net/DTD/sodipodi-0.dtd"
   xmlns:inkscape="http://www.inkscape.org/namespaces/inkscape"
   version="1.1"
   width="595.27557"
   height="841.88977"
   id="svg208"
   viewBox="0 0 595.27557 841.88977"
   sodipodi:docname="Zinus Logo.cdr">
  <metadata
     id="metadata212">
    <rdf:RDF>
      <cc:Work
         rdf:about="">
        <dc:format>image/svg+xml</dc:format>
        <dc:type
           rdf:resource="http://purl.org/dc/dcmitype/StillImage" />
      </cc:Work>
    </rdf:RDF>
  </metadata>
  <sodipodi:namedview
     pagecolor="#ffffff"
     bordercolor="#666666"
     borderopacity="1"
     objecttolerance="10"
     gridtolerance="10"
     guidetolerance="10"
     inkscape:pageopacity="0"
     inkscape:pageshadow="2"
     inkscape:window-width="640"
     inkscape:window-height="480"
     id="namedview210" />
  <defs
     id="defs10">
    <linearGradient
       id="grad1">
      <stop
         offset="0.0000%"
         stop-color="#113082"
         stop-opacity="1.0000"
         id="stop2" />
      <stop
         offset="1.0000%"
         stop-color="#113082"
         stop-opacity="1.0000"
         id="stop4" />
      <stop
         offset="100.0000%"
         stop-color="#1aacde"
         stop-opacity="1.0000"
         id="stop6" />
    </linearGradient>
    <linearGradient
       xlink:href="#grad1"
       id="grad2"
       x1="0"
       y1="0"
       x2="0"
       y2="1"
       gradientUnits="objectBoundingBox" />
  </defs>
  <path
     d="m 215.8988,327.983 c 0,39.7357 28.3561,72.845 65.935,80.2068 v 0 l 2.1299,-4.9569 c -35.7151,-6.4491 -62.81,-37.679 -62.81,-75.2511 v 0 c 0,-42.2399 34.2431,-76.483 76.4841,-76.483 v 0 c 42.241,0 76.4838,34.2431 76.4838,76.483 v 0 c 0,41.7651 -33.4757,75.699 -75.0577,76.4612 v 0 l -3.3052,5.256 c 0.625,0.0139 1.2509,0.0238 1.8791,0.0238 v 0 c 45.1429,0 81.7398,-36.597 81.7398,-81.7398 0,-45.1432 -36.5969,-81.739 -81.7398,-81.739 -45.1432,0 -81.739,36.5958 -81.739,81.739 z"
     style="fill:url(#grad2)"
     id="path12" />
  <defs
     id="defs22">
    <linearGradient
       id="grad3">
      <stop
         offset="0.0000%"
         stop-color="#113082"
         stop-opacity="1.0000"
         id="stop14" />
      <stop
         offset="1.0000%"
         stop-color="#113082"
         stop-opacity="1.0000"
         id="stop16" />
      <stop
         offset="100.0000%"
         stop-color="#1aacde"
         stop-opacity="1.0000"
         id="stop18" />
    </linearGradient>
    <linearGradient
       xlink:href="#grad3"
       id="grad4"
       x1="0"
       y1="0"
       x2="0"
       y2="1"
       gradientUnits="objectBoundingBox" />
  </defs>
  <path
     d="m 297.5426,416.5279 h 0.0952 c 48.9019,0 88.545,-39.6439 88.545,-88.5461 v 0 c 0,-48.8999 -39.6431,-88.5438 -88.545,-88.5438 v 0 c -48.901,0 -88.545,39.6439 -88.545,88.5438 v 0 c 0,42.5421 30.005,78.0611 70.0019,86.588 v 0 l 1.9922,-4.6409 c -38.2352,-7.6791 -67.036,-41.4479 -67.036,-81.9459 v 0 c 0,-46.1642 37.423,-83.5872 83.5869,-83.5872 v 0 c 46.1639,0 83.588,37.423 83.588,83.5872 v 0 c 0,46.1639 -37.4241,83.588 -83.588,83.588 v 0 c -1.01,0 -2.016,-0.0241 -3.0181,-0.0612 v 0 l -3.024,4.8121 c 1.9647,0.1338 3.9481,0.2038 5.9469,0.206 z"
     style="fill:url(#grad4)"
     id="path24" />
  <defs
     id="defs34">
    <linearGradient
       id="grad5">
      <stop
         offset="0.0000%"
         stop-color="#113082"
         stop-opacity="1.0000"
         id="stop26" />
      <stop
         offset="1.0000%"
         stop-color="#113082"
         stop-opacity="1.0000"
         id="stop28" />
      <stop
         offset="100.0000%"
         stop-color="#1aacde"
         stop-opacity="1.0000"
         id="stop30" />
    </linearGradient>
    <linearGradient
       xlink:href="#grad5"
       id="grad6"
       x1="0"
       y1="0"
       x2="0"
       y2="1"
       gradientTransform="rotate(7,0.5,0.5)"
       gradientUnits="objectBoundingBox" />
  </defs>
  <path
     d="m 249.7618,304.42 h 32.1191 l 8.9628,-20.6572 h -32.1069 z"
     style="fill:url(#grad6)"
     id="path36" />
  <defs
     id="defs46">
    <linearGradient
       id="grad7">
      <stop
         offset="0.0000%"
         stop-color="#113082"
         stop-opacity="1.0000"
         id="stop38" />
      <stop
         offset="1.0000%"
         stop-color="#113082"
         stop-opacity="1.0000"
         id="stop40" />
      <stop
         offset="100.0000%"
         stop-color="#1aacde"
         stop-opacity="1.0000"
         id="stop42" />
    </linearGradient>
    <linearGradient
       xlink:href="#grad7"
       id="grad8"
       x1="0"
       y1="0"
       x2="0"
       y2="1"
       gradientTransform="rotate(180,0.5,0.5)"
       gradientUnits="objectBoundingBox" />
  </defs>
  <path
     d="m 315.4669,376.7958 h 25.4919 v -20.804 h -11.33 z"
     style="fill:url(#grad8)"
     id="path48" />
  <defs
     id="defs58">
    <linearGradient
       id="grad9">
      <stop
         offset="0.0000%"
         stop-color="#113082"
         stop-opacity="1.0000"
         id="stop50" />
      <stop
         offset="1.0000%"
         stop-color="#113082"
         stop-opacity="1.0000"
         id="stop52" />
      <stop
         offset="100.0000%"
         stop-color="#1aacde"
         stop-opacity="1.0000"
         id="stop54" />
    </linearGradient>
    <linearGradient
       xlink:href="#grad9"
       id="grad10"
       x1="0"
       y1="0"
       x2="0"
       y2="1"
       gradientTransform="rotate(180,0.5,0.5)"
       gradientUnits="objectBoundingBox" />
  </defs>
  <path
     d="m 307.9409,283.7628 h -12.4461 l -40.5181,93.566 44.549,-0.7858 -25.8801,60.2569 5.8811,-11.4982 30.7712,-60.1608 -37.8652,-0.003 z"
     style="fill:url(#grad10)"
     id="path60" />
  <defs
     id="defs69">
    <linearGradient
       id="grad11">
      <stop
         offset="0.0000%"
         stop-color="#113082"
         stop-opacity="1.0000"
         id="stop62" />
      <stop
         offset="1.0000%"
         stop-color="#113082"
         stop-opacity="1.0000"
         id="stop64" />
      <stop
         offset="100.0000%"
         stop-color="#1aacde"
         stop-opacity="1.0000"
         id="stop66" />
    </linearGradient>
  </defs>
  <path
     d="m 319.1219,283.7628 h -9.3133 l -34.8568,79.8891 38.1229,-0.002 -39.4291,73.1509 -8e-4,0.002 50.8031,-80.8109 h -36.828 z"
     style="fill:url(#grad11)"
     id="path71" />
  <path
     d="m 498.293,537.9701 c 0,5.7742 -3.6439,8.7282 -10.8899,8.7282 H 442.94 c -7.2419,0 -10.891,-2.933 -10.891,-8.7282 v -16.8009 h 9.093 v 19.7719 H 489.2 v -31.9051 -2.3567 c -15.2351,-2.0752 -30.482,-4.1241 -45.722,-6.1872 v -30.2819 h 43.3871 v 15.849 h -9.0929 V 475.9671 H 452.571 v 19.9819 l 41.2521,5.4981 c 4.047,0.538 4.4699,5.2512 4.4699,8.9442 z m -54.815,-16.8009 h 9.093 v 11.679 h 25.2012 V 513.3453 L 436.521,507.702 c -4.0811,-0.5578 -4.472,-5.2409 -4.472,-8.7998 v -28.0559 c 0,-5.7952 3.6309,-8.729 10.891,-8.729 h 44.4631 c 7.259,0 10.8899,2.8899 10.8899,8.5838 v 15.3581 H 489.2 v -18.1851 h -48.058 c 0,11.5679 -0.008,23.1342 0,34.7012 l 45.7231,6.1478 v 29.882 H 443.478 Z"
     style="fill:#61635e;fill-rule:evenodd"
     id="path73" />
  <defs
     id="defs83">
    <linearGradient
       id="grad12">
      <stop
         offset="0.0000%"
         stop-color="#113082"
         stop-opacity="1.0000"
         id="stop75" />
      <stop
         offset="1.0000%"
         stop-color="#113082"
         stop-opacity="1.0000"
         id="stop77" />
      <stop
         offset="100.0000%"
         stop-color="#1aacde"
         stop-opacity="1.0000"
         id="stop79" />
    </linearGradient>
    <linearGradient
       xlink:href="#grad12"
       id="grad13"
       x1="0"
       y1="0"
       x2="0"
       y2="1"
       gradientTransform="rotate(7,0.5,0.5)"
       gradientUnits="objectBoundingBox" />
  </defs>
  <path
     d="m 96.9817,480.9549 h 29.289 l 8.174,-18.8371 h -29.2779 z"
     style="fill:url(#grad13)"
     id="path85" />
  <defs
     id="defs95">
    <linearGradient
       id="grad14">
      <stop
         offset="0.0000%"
         stop-color="#113082"
         stop-opacity="1.0000"
         id="stop87" />
      <stop
         offset="1.0000%"
         stop-color="#113082"
         stop-opacity="1.0000"
         id="stop89" />
      <stop
         offset="100.0000%"
         stop-color="#1aacde"
         stop-opacity="1.0000"
         id="stop91" />
    </linearGradient>
    <linearGradient
       xlink:href="#grad14"
       id="grad15"
       x1="0"
       y1="0"
       x2="0"
       y2="1"
       gradientTransform="rotate(180,0.5,0.5)"
       gradientUnits="objectBoundingBox" />
  </defs>
  <path
     d="m 180.1429,546.9528 v -18.97 h -10.3312 l -12.9141,18.97 z"
     style="fill:url(#grad15)"
     id="path97" />
  <defs
     id="defs107">
    <linearGradient
       id="grad16">
      <stop
         offset="0.0000%"
         stop-color="#113082"
         stop-opacity="1.0000"
         id="stop99" />
      <stop
         offset="1.0000%"
         stop-color="#113082"
         stop-opacity="1.0000"
         id="stop101" />
      <stop
         offset="100.0000%"
         stop-color="#1aacde"
         stop-opacity="1.0000"
         id="stop103" />
    </linearGradient>
    <linearGradient
       xlink:href="#grad16"
       id="grad17"
       x1="0"
       y1="0"
       x2="0"
       y2="1"
       gradientTransform="rotate(180,0.5,0.5)"
       gradientUnits="objectBoundingBox" />
  </defs>
  <path
     d="m 150.0347,462.1178 h -11.348 l -36.9479,85.3212 40.6219,-0.7172 -23.599,54.949 5.3632,-10.4839 28.0587,-54.8612 -34.5279,-0.003 z"
     style="fill:url(#grad17)"
     id="path109" />
  <defs
     id="defs118">
    <linearGradient
       id="grad18">
      <stop
         offset="0.0000%"
         stop-color="#113082"
         stop-opacity="1.0000"
         id="stop111" />
      <stop
         offset="1.0000%"
         stop-color="#113082"
         stop-opacity="1.0000"
         id="stop113" />
      <stop
         offset="100.0000%"
         stop-color="#1aacde"
         stop-opacity="1.0000"
         id="stop115" />
    </linearGradient>
  </defs>
  <path
     d="m 160.2317,462.1178 h -8.494 l -31.7848,72.849 34.7638,-8e-4 -35.953,66.702 46.3241,-73.6852 H 131.5049 Z M 118.7609,601.672 h 8e-4 l 0.002,-0.004 z"
     style="fill:url(#grad18)"
     id="path120" />
  <path
     d="m 483.1982,568.1166 6.7712,-6.74 c 0.5428,-0.5309 0.9649,-0.9748 1.2707,-1.3371 0.3093,-0.362 0.4672,-0.6587 0.4672,-0.8787 0,-0.1891 -0.152,-0.32 -0.451,-0.4031 l -1.4321,-0.3271 -0.051,-0.796 c 1.167,0.0411 2.442,0.0621 3.8271,0.0621 1.3719,0 2.6679,-0.021 3.9038,-0.0621 l 0.0783,0.7651 -1.8652,0.466 c -0.5369,0.1468 -0.9978,0.377 -1.3879,0.684 -0.3829,0.311 -0.7891,0.6729 -1.218,1.0911 l -5.667,5.7288 7.2688,9.6851 c 0.3481,0.4499 0.665,0.7659 0.9411,0.9499 0.275,0.1879 0.6041,0.3271 0.9922,0.428 l 1.6018,0.4502 0.0451,0.7509 c -1.2181,-0.0309 -2.4812,-0.046 -3.7792,-0.046 -1.2118,0 -2.52,0.009 -3.9177,0.0301 -0.3271,-0.6582 -1.2291,-1.9962 -2.6893,-4.013 z"
     style="fill:#61635e;fill-rule:evenodd"
     id="path122" />
  <path
     d="m 482.7988,561.9027 v 11.9821 c 0,0.6029 0,1.1441 0.005,1.6339 0.007,0.4901 0.017,0.9292 0.0281,1.317 0.0119,0.2709 0.1528,0.445 0.4297,0.521 l 1.9171,0.5249 0.0502,0.7362 c -1.37,-0.0301 -2.9781,-0.0459 -4.8322,-0.0459 -1.9219,0 -3.638,0.0158 -5.148,0.0459 l -0.0839,-0.7362 2.2149,-0.5499 c 0.288,-0.0819 0.4352,-0.2358 0.4451,-0.4649 0.011,-0.3991 0.0241,-0.8481 0.0289,-1.343 0.006,-0.489 0.006,-1.0361 0.006,-1.639 v -11.92 c 0,-0.5 0,-0.9561 -0.006,-1.364 -0.005,-0.4079 -0.0179,-0.7861 -0.0289,-1.1231 -0.01,-0.2599 -0.14,-0.4241 -0.3929,-0.4949 l -2.2173,-0.5831 -0.0498,-0.7659 c 1.5329,0.0411 3.2249,0.0629 5.0791,0.0629 1.9009,0 3.5308,-0.0218 4.8829,-0.0629 l 0.1021,0.7659 -1.9673,0.5122 c -0.2659,0.0649 -0.4067,0.2228 -0.4297,0.4589 -0.0111,0.3731 -0.0213,0.7651 -0.0281,1.1841 -0.005,0.4178 -0.005,0.8679 -0.005,1.3478 z"
     style="fill:#61635e;fill-rule:evenodd"
     id="path124" />
  <path
     d="m 463.9972,563.3011 -0.9071,0.134 -1.258,-4.295 c -0.8688,-0.2489 -1.8111,-0.3719 -2.825,-0.3719 -2.431,0 -4.3129,0.8269 -5.6449,2.4809 -1.336,1.6492 -2.001,3.814 -2.001,6.489 0,2.8591 0.7829,5.1361 2.357,6.8321 1.567,1.6999 3.744,2.5461 6.5299,2.5461 1.5559,0 3.191,-0.286 4.9051,-0.8572 l 0.214,0.8529 c -2.1991,1.3533 -4.6911,2.0262 -7.4651,2.0262 -3.5968,0 -6.508,-0.9842 -8.729,-2.95 -2.2158,-1.9661 -3.325,-4.5541 -3.325,-7.7649 0,-3.4271 1.2161,-6.1382 3.647,-8.134 2.4361,-1.9962 5.6101,-2.992 9.5281,-2.992 1.9401,0 3.9249,0.2038 5.95,0.6128 l 0.1009,0.154 z"
     style="fill:#61635e;fill-rule:evenodd"
     id="path126" />
  <path
     d="m 422.293,570.3783 2.2661,-5.417 c 0.231,-0.557 0.4458,-1.0978 0.6429,-1.614 0.174,0.5162 0.3721,1.0621 0.5811,1.629 l 2.0298,5.402 z m 15.9441,7.5042 -1.6169,-0.434 c -0.4241,-0.1122 -0.7452,-0.286 -0.9712,-0.5301 -0.225,-0.2452 -0.4719,-0.7152 -0.75,-1.415 l -7.1201,-18.2002 -1.7818,0.2393 -8.2262,18.1548 c -0.2429,0.521 -0.4629,0.9039 -0.6607,1.1602 -0.2021,0.254 -0.5071,0.4388 -0.9233,0.5448 l -1.7719,0.4802 0.085,0.7347 c 1.342,-0.0297 2.5382,-0.0459 3.581,-0.0459 1.0029,0 2.3052,0.0162 3.9011,0.0459 l -0.0499,-0.7648 -1.584,-0.4189 c -0.2092,-0.051 -0.3671,-0.1222 -0.4632,-0.2092 -0.1009,-0.0919 -0.1531,-0.22 -0.1531,-0.3889 0,-0.1831 0.0692,-0.438 0.1931,-0.7699 0.1301,-0.3371 0.3041,-0.777 0.5352,-1.3281 l 1.1729,-2.7969 h 6.7771 l 1.0879,2.8128 c 0.209,0.5301 0.3668,0.9542 0.4799,1.281 0.1072,0.322 0.1642,0.5871 0.1642,0.786 0,0.1792 -0.0511,0.3121 -0.148,0.404 -0.1012,0.0921 -0.2591,0.1641 -0.4782,0.2242 l -1.6359,0.434 0.08,0.7347 c 1.8941,-0.0297 3.8389,-0.0459 5.8351,-0.0459 1.5049,0 3.005,0.0162 4.4878,0.0459 z"
     style="fill:#61635e;fill-rule:evenodd"
     id="path128" />
  <path
     d="m 398.3771,566.5541 c -0.7279,0.7101 -1.872,1.0661 -3.439,1.0661 -0.4739,0 -1.004,-0.015 -1.5899,-0.0451 v -8.4449 c 0.3659,-0.036 0.6928,-0.0661 0.9859,-0.0871 0.288,-0.0198 0.5641,-0.03 0.8181,-0.03 1.4779,0 2.5647,0.337 3.27,1.0052 0.6999,0.6749 1.05,1.741 1.05,3.202 0,1.5108 -0.3671,2.6237 -1.0951,3.3338 z m 10.0591,11.359 c -0.2773,-0.0499 -0.5313,-0.102 -0.7552,-0.1579 -0.2259,-0.055 -0.4348,-0.1222 -0.631,-0.199 -0.2038,-0.0819 -0.39,-0.1791 -0.5749,-0.2851 -0.1811,-0.1129 -0.3682,-0.2399 -0.5711,-0.389 -0.3609,-0.3319 -0.7498,-0.7809 -1.1608,-1.3478 -0.4122,-0.5672 -0.8751,-1.2252 -1.3822,-1.965 -0.506,-0.7452 -1.008,-1.5012 -1.5089,-2.2672 -0.502,-0.771 -1.2141,-1.771 -2.1441,-3.0078 1.675,-0.4893 2.948,-1.1891 3.812,-2.0971 0.862,-0.9099 1.296,-2.1101 1.296,-3.5901 0,-1.644 -0.71,-2.895 -2.126,-3.7459 -1.415,-0.8601 -3.535,-1.2881 -6.3649,-1.2881 -0.254,0 -0.604,0.005 -1.0499,0.0102 -0.4451,0.0108 -1.0021,0.021 -1.6623,0.0408 -0.7279,0.015 -1.3419,0.0312 -1.8487,0.0471 -0.5091,0.015 -0.9312,0.0261 -1.275,0.0261 -1.6192,0 -3.1981,-0.0222 -4.7413,-0.0633 l 0.0491,0.7663 2.2181,0.5828 c 0.2528,0.0711 0.3829,0.2349 0.3929,0.4952 0.011,0.337 0.0241,0.7149 0.0292,1.1228 0.005,0.4082 0.005,0.8631 0.005,1.3632 v 11.9208 c 0,0.6032 0,1.1491 -0.005,1.639 -0.005,0.4952 -0.0182,0.9442 -0.0292,1.343 -0.0219,0.2401 -0.169,0.392 -0.4451,0.464 l -2.215,0.5511 0.0831,0.735 c 1.512,-0.03 3.227,-0.045 5.1539,-0.045 1.8051,0 3.3211,0.015 4.5443,0.045 l -0.0502,-0.735 -1.7189,-0.5099 c -0.243,-0.0661 -0.3671,-0.2603 -0.379,-0.5831 -0.01,-0.387 -0.023,-0.8209 -0.027,-1.2909 -0.006,-0.4743 -0.006,-1.01 -0.006,-1.607 v -4.9992 l 0.6928,0.0162 c 0.1752,0.009 0.322,0.0297 0.4402,0.0657 0.1128,0.0352 0.2259,0.0922 0.3268,0.163 0.108,0.0771 0.2152,0.1891 0.3169,0.3371 0.1061,0.153 0.2413,0.3421 0.4043,0.572 0.553,0.796 1.0768,1.603 1.5789,2.4199 0.502,0.8173 0.9878,1.5872 1.4609,2.3171 0.4731,0.7259 0.9241,1.379 1.3471,1.9562 0.424,0.5828 0.892,1.046 1.3989,1.4099 0.3381,0.2339 0.7321,0.423 1.1721,0.5511 0.4411,0.127 1.2121,0.1939 2.3131,0.1939 1.3869,0 2.622,-0.0709 3.6978,-0.2101 z"
     style="fill:#61635e;fill-rule:evenodd"
     id="path130" />
  <path
     d="m 366.6866,578.5716 c -1.94,0 -3.789,0.0161 -5.5491,0.0462 l -0.085,-0.735 2.6461,-0.6591 c 0.2759,-0.0819 0.417,-0.2389 0.4269,-0.479 0.0241,-0.7461 0.036,-1.7099 0.036,-2.89 v -14.627 h -4.7599 l -1.5171,3.977 -0.9261,0.138 -0.4269,-5.5851 0.112,-0.123 c 2.7071,0.0411 5.3011,0.0621 7.7819,0.0621 h 4.6061 c 2.4811,0 5.0921,-0.021 7.8329,-0.0621 l 0.1001,0.123 -1.093,5.4621 -0.925,0.1381 -1.072,-4.1301 h -4.775 v 14.627 c 0,1.1801 0.0122,2.1439 0.034,2.89 0.0111,0.2401 0.1571,0.3971 0.4451,0.479 l 2.5939,0.6591 0.0511,0.735 c -1.827,-0.0301 -3.676,-0.0462 -5.537,-0.0462 z"
     style="fill:#61635e;fill-rule:evenodd"
     id="path132" />
  <defs
     id="defs142">
    <linearGradient
       id="grad19">
      <stop
         offset="0.0000%"
         stop-color="#113082"
         stop-opacity="1.0000"
         id="stop134" />
      <stop
         offset="1.0000%"
         stop-color="#113082"
         stop-opacity="1.0000"
         id="stop136" />
      <stop
         offset="100.0000%"
         stop-color="#1aacde"
         stop-opacity="1.0000"
         id="stop138" />
    </linearGradient>
    <linearGradient
       xlink:href="#grad19"
       id="grad20"
       x1="0"
       y1="0"
       x2="0"
       y2="1"
       gradientUnits="objectBoundingBox" />
  </defs>
  <path
     d="m 346.4694,578.8939 h 0.0513 0.0649 c 1.3618,-0.002 2.5739,-0.0734 3.6343,-0.2101 l -0.0621,-0.771 c -0.2761,-0.0499 -0.5309,-0.102 -0.7551,-0.157 v 0 c -0.2259,-0.0559 -0.4349,-0.123 -0.6319,-0.1999 v 0 c -0.2029,-0.0822 -0.39,-0.178 -0.5751,-0.2851 v 0 c -0.1809,-0.1128 -0.366,-0.241 -0.5701,-0.3878 v 0 c -0.3608,-0.3322 -0.7497,-0.7821 -1.1607,-1.3482 v 0 c -0.4122,-0.5669 -0.8751,-1.2259 -1.3811,-1.9658 v 0 c -0.508,-0.7452 -1.0091,-1.5012 -1.5111,-2.2671 v 0 c -0.5029,-0.7711 -1.2138,-1.7711 -2.143,-3.0082 v 0 c 1.6741,-0.4889 2.948,-1.1888 3.81,-2.0968 v 0 c 0.8632,-0.909 1.2972,-2.1089 1.2972,-3.59 v 0 c 0,-1.643 -0.7101,-2.8939 -2.1252,-3.746 v 0 c -1.415,-0.8589 -3.5351,-1.2889 -6.3649,-1.2889 v 0 c -0.2531,0 -0.6041,0.007 -1.0499,0.0107 -0.4462,0.0111 -1.0032,0.0213 -1.6631,0.0423 v 0 c -0.7271,0.0139 -1.342,0.0297 -1.8491,0.0459 v 0 c -0.5068,0.015 -0.9309,0.0261 -1.275,0.0261 v 0 c -1.618,0 -3.1969,-0.0221 -4.7409,-0.0621 v 0 l 0.0498,0.7651 2.2173,0.5828 c 0.2529,0.072 0.3818,0.235 0.3937,0.4952 v 0 c 0.0111,0.3367 0.0233,0.7149 0.0281,1.1228 v 0 c 0.005,0.409 0.005,0.8631 0.005,1.3632 v 0 11.9208 c 0,0.6032 0,1.15 -0.005,1.639 v 0 c -0.005,0.4952 -0.017,0.9442 -0.0281,1.343 v 0 c -0.0218,0.2401 -0.1698,0.3921 -0.4447,0.4652 v 0 l -2.2161,0.5508 0.0839,0.735 c 1.5111,-0.0309 3.2249,-0.0459 5.1542,-0.0459 v 0 c 1.8048,0 3.3208,0.015 4.5439,0.0459 v 0 l -0.0501,-0.735 -1.719,-0.5108 c -0.2429,-0.0661 -0.3679,-0.2603 -0.3778,-0.5831 v 0 c -0.0122,-0.3869 -0.0241,-0.8209 -0.0292,-1.2901 v 0 c -0.006,-0.4751 -0.006,-1.0108 -0.006,-1.6081 v 0 -4.9977 l 0.6939,0.015 c 0.1752,0.01 0.3221,0.0298 0.4391,0.0669 v 0 c 0.1131,0.0349 0.226,0.091 0.3272,0.1619 v 0 c 0.108,0.0782 0.214,0.189 0.3169,0.337 v 0 c 0.106,0.1542 0.242,0.3421 0.405,0.572 v 0 c 0.5531,0.796 1.0769,1.603 1.5789,2.4211 v 0 c 0.502,0.8161 0.9882,1.586 1.461,2.317 v 0 c 0.4731,0.7249 0.9241,1.3791 1.347,1.9551 v 0 c 0.423,0.5828 0.891,1.0468 1.3969,1.4099 v 0 c 0.3402,0.2339 0.7351,0.423 1.1742,0.5511 v 0 c 0.4342,0.1259 1.188,0.1919 2.2606,0.1939 z m -11.4007,-11.319 v -8.445 c 0.3671,-0.036 0.6939,-0.0661 0.9862,-0.0859 v 0 c 0.288,-0.0213 0.5638,-0.0312 0.8178,-0.0312 v 0 c 1.478,0 2.5662,0.3371 3.2712,1.0052 v 0 c 0.699,0.6749 1.0488,1.7407 1.0488,3.202 v 0 c 0,1.5109 -0.366,2.6237 -1.095,3.3338 v 0 c -0.7268,0.711 -1.8709,1.067 -3.4379,1.067 v 0 c -0.4759,0 -1.0052,-0.0159 -1.5911,-0.0459 z"
     style="fill:url(#grad20)"
     id="path144" />
  <defs
     id="defs154">
    <linearGradient
       id="grad21">
      <stop
         offset="0.0000%"
         stop-color="#113082"
         stop-opacity="1.0000"
         id="stop146" />
      <stop
         offset="1.0000%"
         stop-color="#113082"
         stop-opacity="1.0000"
         id="stop148" />
      <stop
         offset="100.0000%"
         stop-color="#1aacde"
         stop-opacity="1.0000"
         id="stop150" />
    </linearGradient>
    <linearGradient
       xlink:href="#grad21"
       id="grad22"
       x1="0"
       y1="0"
       x2="0"
       y2="1"
       gradientUnits="objectBoundingBox" />
  </defs>
  <path
     d="m 308.4698,557.697 h -4.1661 c -1.3878,0 -2.8491,-0.0221 -4.3908,-0.0621 l 0.0479,0.7651 2.217,0.5828 c 0.2531,0.072 0.3821,0.235 0.394,0.4952 v 0 c 0.011,0.3367 0.0229,0.7149 0.0289,1.1228 v 0 c 0.005,0.409 0.005,0.8631 0.005,1.3632 v 0 11.9208 c 0,0.6032 0,1.15 -0.005,1.639 v 0 c -0.006,0.4952 -0.0179,0.9442 -0.0289,1.343 v 0 c -0.0221,0.2401 -0.169,0.3932 -0.4439,0.4652 v 0 l -2.215,0.5508 0.0819,0.735 c 1.5129,-0.021 2.9718,-0.0309 4.388,-0.0309 v 0 h 4.3699 c 2.5991,0 5.2659,0.0159 8.0122,0.0459 v 0 l 0.1128,-0.1068 0.3999,-5.601 -1.0088,0.1389 -2.0809,3.9299 h -6.6082 c -0.0229,-1.0769 -0.034,-2.1639 -0.034,-3.2618 v 0 -5.131 h 0.8731 c 0.97,0 2.0188,0.0108 3.1411,0.0309 v 0 c 0.2528,0.01 0.4229,0.148 0.5128,0.4178 v 0 l 0.6091,2.1101 1.0891,-0.0779 c -0.0292,-1.4341 -0.0462,-2.5022 -0.0462,-3.2012 v 0 c 0,-0.7188 0.017,-1.8008 0.0462,-3.2459 v 0 l -1.0891,0.0462 -0.5921,2.0457 c -0.089,0.2611 -0.277,0.3941 -0.5638,0.4031 v 0 c -1.099,0.021 -2.13,0.0321 -3.0901,0.0321 v 0 h -0.8901 v -7.9339 h 6.3941 l 1.054,3.6238 0.8909,-0.1168 1.0261,-4.9771 -0.1131,-0.123 c -2.8749,0.04 -5.6508,0.0621 -8.3279,0.0621 z"
     style="fill:url(#grad22)"
     id="path156" />
  <defs
     id="defs166">
    <linearGradient
       id="grad23">
      <stop
         offset="0.0000%"
         stop-color="#113082"
         stop-opacity="1.0000"
         id="stop158" />
      <stop
         offset="1.0000%"
         stop-color="#113082"
         stop-opacity="1.0000"
         id="stop160" />
      <stop
         offset="100.0000%"
         stop-color="#1aacde"
         stop-opacity="1.0000"
         id="stop162" />
    </linearGradient>
    <linearGradient
       xlink:href="#grad23"
       id="grad24"
       x1="0"
       y1="0"
       x2="0"
       y2="1"
       gradientUnits="objectBoundingBox" />
  </defs>
  <path
     d="m 275.5437,557.6349 -4.8889,12.8699 c -0.18,0.4912 -0.3529,1.0122 -0.5301,1.5582 v 0 c -0.1238,-0.5321 -0.2698,-1.063 -0.4439,-1.6042 v 0 l -3.0742,-8.9288 c -0.1859,-0.5511 -0.3208,-0.9862 -0.4059,-1.3023 v 0 c -0.0839,-0.3208 -0.123,-0.5819 -0.123,-0.7809 v 0 c 0,-0.178 0.0502,-0.311 0.1451,-0.4028 v 0 c 0.1021,-0.0921 0.26,-0.1641 0.4811,-0.2242 v 0 l 1.635,-0.4198 -0.0961,-0.7651 c -1.895,0.04 -3.8341,0.0621 -5.813,0.0621 v 0 c -1.512,0 -3.0121,-0.0221 -4.4941,-0.0621 v 0 l 0.044,0.7651 1.6069,0.4198 c 0.4182,0.1222 0.7453,0.299 0.9823,0.5459 v 0 c 0.2369,0.2452 0.479,0.7093 0.733,1.3981 v 0 l 6.4448,17.9572 1.7822,-0.1341 4.5609,-11.7471 c 0.2421,-0.6278 0.4961,-1.303 0.7608,-2.0219 v 0 c 0.2322,0.7299 0.4573,1.4091 0.6761,2.037 v 0 l 4.1791,11.8661 1.798,-0.1341 7.121,-18.0011 c 0.2089,-0.5298 0.424,-0.919 0.6369,-1.1699 v 0 c 0.2152,-0.2511 0.5309,-0.4331 0.949,-0.5499 v 0 l 1.7691,-0.466 -0.085,-0.7651 c -1.3411,0.04 -2.5381,0.0621 -3.585,0.0621 v 0 c -0.9981,0 -2.3011,-0.0221 -3.8959,-0.0621 v 0 l 0.0499,0.796 1.584,0.4031 c 0.21,0.0518 0.3671,0.1238 0.4739,0.21 v 0 c 0.1021,0.0918 0.154,0.22 0.154,0.3878 v 0 c 0,0.1891 -0.046,0.4442 -0.1421,0.7551 v 0 c -0.091,0.3181 -0.2477,0.7671 -0.4688,1.359 v 0 l -3.4331,8.9589 c -0.1919,0.4912 -0.3719,1.0071 -0.547,1.5582 v 0 c -0.1129,-0.5321 -0.26,-1.063 -0.4459,-1.5991 v 0 l -4.4249,-12.9631 z"
     style="fill:url(#grad24)"
     id="path168" />
  <defs
     id="defs178">
    <linearGradient
       id="grad25">
      <stop
         offset="0.0000%"
         stop-color="#113082"
         stop-opacity="1.0000"
         id="stop170" />
      <stop
         offset="1.0000%"
         stop-color="#113082"
         stop-opacity="1.0000"
         id="stop172" />
      <stop
         offset="100.0000%"
         stop-color="#1aacde"
         stop-opacity="1.0000"
         id="stop174" />
    </linearGradient>
    <linearGradient
       xlink:href="#grad25"
       id="grad26"
       x1="0"
       y1="0"
       x2="0"
       y2="1"
       gradientUnits="objectBoundingBox" />
  </defs>
  <path
     d="m 229.0416,560.162 c -2.2609,2.0069 -3.3888,4.737 -3.3888,8.189 v 0 c 0,3.314 1.0488,5.938 3.1411,7.8778 v 0 c 2.0908,1.94 5.0578,2.9092 8.8979,2.9092 v 0 c 4.0091,0 7.1368,-1.05 9.387,-3.1491 v 0 c 2.2498,-2.0982 3.3721,-4.8761 3.3721,-8.3281 0,-3.2508 -1.0491,-5.8139 -3.1422,-7.697 v 0 c -2.09,-1.8799 -5.057,-2.8199 -8.8909,-2.8199 -3.9909,0 -7.115,1.0069 -9.3762,3.0181 z m 3.9461,15.0298 c -1.188,-1.69 -1.7869,-4.1349 -1.7869,-7.3258 v 0 c 0,-3.1241 0.525,-5.457 1.5789,-7.0002 v 0 c 1.055,-1.5409 2.7462,-2.3119 5.074,-2.3119 v 0 c 2.4029,0 4.178,0.832 5.328,2.4911 v 0 c 1.146,1.6648 1.7212,4.0388 1.7212,7.1319 v 0 c 0,3.2931 -0.5423,5.7079 -1.6291,7.2448 v 0 c -1.089,1.5373 -2.7691,2.3083 -5.0411,2.3083 v 0 c -2.3068,0 -4.055,-0.847 -5.245,-2.5382 z"
     style="fill:url(#grad26)"
     id="path180" />
  <defs
     id="defs190">
    <linearGradient
       id="grad27">
      <stop
         offset="0.0000%"
         stop-color="#113082"
         stop-opacity="1.0000"
         id="stop182" />
      <stop
         offset="1.0000%"
         stop-color="#113082"
         stop-opacity="1.0000"
         id="stop184" />
      <stop
         offset="100.0000%"
         stop-color="#1aacde"
         stop-opacity="1.0000"
         id="stop186" />
    </linearGradient>
    <linearGradient
       xlink:href="#grad27"
       id="grad28"
       x1="0"
       y1="0"
       x2="0"
       y2="1"
       gradientUnits="objectBoundingBox" />
  </defs>
  <path
     d="m 204.1628,557.6349 c -0.9751,0.04 -1.9859,0.0621 -3.0161,0.0621 v 0 c -1.5108,0 -3.041,-0.0221 -4.585,-0.0621 l 0.051,0.7651 2.2162,0.5828 c 0.2528,0.072 0.3829,0.235 0.3948,0.4952 v 0 c 0.0111,0.3367 0.0221,0.7149 0.0281,1.1228 v 0 c 0.005,0.409 0.005,0.8631 0.005,1.3632 v 0 11.9208 c 0,0.6032 0,1.15 -0.005,1.639 v 0 c -0.006,0.4952 -0.017,0.9442 -0.0281,1.343 v 0 c -0.0119,0.2291 -0.159,0.3841 -0.4459,0.4652 v 0 l -2.2161,0.5508 0.085,0.735 c 1.5112,-0.0309 3.225,-0.0459 5.1472,-0.0459 v 0 c 1.8558,0 3.638,0.015 5.3399,0.0459 l -0.0451,-0.735 -2.4298,-0.6279 c -0.2773,-0.0921 -0.417,-0.2512 -0.4292,-0.4799 v 0 c -0.0119,-0.3781 -0.0218,-0.807 -0.0289,-1.2813 v 0 c -0.004,-0.47 -0.004,-1.0119 -0.004,-1.6089 v 0 -4.0689 c 0.9179,0.108 1.7688,0.163 2.554,0.163 v 0 c 2.903,0 5.1591,-0.6009 6.755,-1.802 v 0 c 1.5939,-1.2041 2.3958,-2.8831 2.3958,-5.053 v 0 c 0,-1.834 -0.7667,-3.217 -2.2997,-4.1519 v 0 c -1.5353,-0.934 -3.7902,-1.4 -6.766,-1.4 v 0 c -0.807,0 -1.6983,0.0218 -2.6731,0.0629 z m 0.034,10.7419 v -9.2469 c 0.62,-0.0751 1.2351,-0.1171 1.8428,-0.1171 v 0 c 1.5503,0 2.6853,0.3881 3.4073,1.16 v 0 c 0.7137,0.7701 1.076,1.944 1.076,3.522 v 0 c 0,1.624 -0.3781,2.8392 -1.1392,3.6411 v 0 c -0.756,0.8019 -1.861,1.205 -3.3101,1.205 v 0 c -0.6207,0 -1.2458,-0.057 -1.8768,-0.1641 z"
     style="fill:url(#grad28)"
     id="path192" />
  <path
     d="m 406.5344,537.9701 c 0,5.7742 -3.6731,8.7282 -10.891,8.7282 h -46.9823 c -7.2178,0 -10.8898,-2.933 -10.8898,-8.7282 v -75.8528 h 9.093 v 78.679 h 50.576 v -78.6782 h -2.3349 v 76.343 h -45.9063 v -76.343 l 9.093,-8e-4 v 70.4429 h 27.72 v -70.4429 h 20.5223 z"
     style="fill:#61635e;fill-rule:evenodd"
     id="path194" />
  <path
     d="m 301.2032,535.8149 -47.552,-66.7581 h -2.3349 v 77.6412 h -8.7202 v -84.5802 h 17.971 l 31.703,44.4699 0.007,-44.4699 h 8.9399 z m 2.336,-73.6971 h 8.72 v 84.5802 h -17.972 l -31.7171,-41.5922 0.006,41.5922 h -8.9249 v -73.6152 l 47.552,66.757 2.336,0.001 v -77.722 l 8.72,-0.001 v 84.5802 z"
     style="fill:#61635e;fill-rule:evenodd"
     id="path196" />
  <path
     d="m 217.0837,546.6977 h -9.0933 v -84.579 h -2.3349 v -0.001 h 11.4282 z"
     style="fill:#61635e;fill-rule:evenodd"
     id="path198" />
  <path
     d="m 205.6552,462.1187 v 84.579 h -9.0929 v -84.5802 h 9.0929 z"
     style="fill:#61635e;fill-rule:evenodd"
     id="path200" />
  <path
     d="m 294.2872,546.6977 -31.7171,-41.5919 0.006,41.5919 h -8.9249 v -73.6149 l 47.552,66.7579 2.336,8e-4 v -77.7228 l 8.72,-0.001 v 84.5802 z"
     style="fill:#61635e;fill-rule:evenodd"
     id="path202" />
  <path
     d="m 395.1057,462.1187 v 76.3429 h -45.9063 v -76.3429 l 9.0933,-0.001 v 70.4421 h 27.7189 v -70.4421 z"
     style="fill:#61635e;fill-rule:evenodd"
     id="path204" />
  <path
     d="m 498.293,537.9701 c 0,5.7742 -3.6439,8.7282 -10.8899,8.7282 H 442.94 c -7.2419,0 -10.891,-2.933 -10.891,-8.7282 v -16.8009 h 9.093 v 19.7719 H 489.2 v -34.2618 l -45.722,-6.1872 v -30.2819 h 43.3871 v 15.849 h -9.0929 V 475.9671 H 452.571 v 19.9819 l 41.2521,5.4981 c 4.047,0.538 4.4699,5.2512 4.4699,8.9442 z"
     style="fill:#61635e;fill-rule:evenodd"
     id="path206" />
</svg>
